# xmcd
#
# Track frame offsets:
#	150
#	10804
#	26033
#	44412
#	56416
#	75095
#	94524
#	110953
#	131357
#	147711
#	163765
#	181769
#	200373
#	221377
#	238331
#	254685
#	272689
#	293993
#	307047
#
# Disc length: 4279 seconds
#
# Revision: 1
# Processed by: cddbd v1.5.1PL2 Copyright (c) Steve Scherf et al.
# Submitted via: audiograbber 1.83.01
#
DISCID=1610b513
DTITLE=always country - always country
DYEAR=1900
DGENRE=
TTITLE0=Kentucky waltz
TTITLE1=Temted
TTITLE2=Do you wanna dance
TTITLE3=Cotton eyed joe
TTITLE4=Take it away
TTITLE5=Walk
TTITLE6=Flying eight
TTITLE7=Hip bip twist
TTITLE8=El paso moon
TTITLE9=Achy breaky 
TTITLE10=Baby likes to rock it
TTITLE11=Swamp thing
TTITLE12=Copperhead road
TTITLE13=Shiloh shuffle
TTITLE14=Riding
TTITLE15=Bremer
TTITLE16=Ain't going down
TTITLE17=Texas waltz
TTITLE18=Single waltz
EXTD=
EXTT0=
EXTT1=
EXTT2=
EXTT3=
EXTT4=
EXTT5=
EXTT6=
EXTT7=
EXTT8=
EXTT9=
EXTT10=
EXTT11=
EXTT12=
EXTT13=
EXTT14=
EXTT15=
EXTT16=
EXTT17=
EXTT18=
PLAYORDER=
